PathFileType	4	(X/Y/Z)	C:/Users/beibeiliu/ov580/test_trc/User2\sequence.8_training_dense_left.trc
DataRate	CameraRate	NumFrames	NumMarkers	Units	OrigDataRate	OrigDataStartFrame	OrigNumFrames
120	120	11	19	mm	120	1	77
Frame#	Time	ThumbCMC			ThumbMCP			ThumbIP			ThumbTip			IndexMCP			IndexPIP			IndexTip			MiddleMCP			MiddlePIP			MiddleTip			RingMCP			RingPIP			RingTip			PinkyMCP			PinkyPIP			PinkyTip			BackHand1			BackHand2			BackHand3	
		X0	Y0	Z0	X1	Y1	Z1	X2	Y2	Z2	X3	Y3	Z3	X4	Y4	Z4	X5	Y5	Z5	X6	Y6	Z6	X7	Y7	Z7	X8	Y8	Z8	X9	Y9	Z9	X10	Y10	Z10	X11	Y11	Z11	X12	Y12	Z12	X13	Y13	Z13	X14	Y14	Z14	X15	Y15	Z15	X16	Y16	Z16	X17	Y17	Z17	X18	Y18	Z18	
0	0	-147.664	-36.1296	-7.62296	-129.214	-37.8512	-29.5193	-104.257	-33.4705	-53.5495	-86.2288	-33.676	-72.7142	-171.241	-9.69286	-84.5617	-164.838	-4.003	-110.597	-161.549	4.14117	-142.43	-197.589	-7.07952	-90.2491	-200.869	0.163052	-121.289	-205.37	4.64525	-152.825	-222.306	-15.7021	-85.0421	-229.36	-10.9536	-107.267	-235.729	-7.75568	-136.287	-246.304	-35.4707	-66.9044	-256.799	-33.4245	-85.7185	-267.384	-22.5978	-106.67	-217.339	-20.4976	-31.3531	-215.309	-21.7634	6.52425	-182.633	-14.0189	-16.354	
1	0.00833333	-150.066	-36.1865	-10.529	-129.308	-36.0594	-31.0786	-109.915	-34.2245	-56.0669	-87.7787	-33.9529	-73.6461	-172.985	-8.8579	-86.8168	-167.918	-2.15136	-115.306	-165.254	3.6337	-144.35	-198.422	-5.82128	-93.066	-201.356	0.0425496	-119.21	-207.311	5.36687	-153.017	-227.551	-16.3411	-82.713	-229.642	-11.0455	-108.269	-237.335	-5.89093	-141.356	-243.51	-36.4039	-64.2029	-260.975	-30.6583	-89.0493	-270.943	-21.9638	-103.288	-220.139	-22.6734	-28.0045	-215.602	-20.3969	3.60651	-182.896	-14.3829	-18.6615	
2	0.0166667	-150.28	-36.9763	-8.88057	-131.482	-37.5582	-29.1044	-106.174	-32.8167	-58.2352	-91.1027	-35.564	-70.9968	-167.983	-7.46645	-89.8515	-168.385	-2.89593	-113.413	-161.84	3.2215	-140.154	-200.927	-6.38923	-89.8682	-201.948	0.0513086	-120.579	-204.412	5.6818	-151.264	-222.421	-15.9812	-81.6557	-231.062	-10.3471	-112.693	-238.253	-6.74432	-140.374	-245.763	-34.8581	-64.5531	-260.429	-31.7728	-87.2397	-270.242	-23.2976	-105.173	-221.127	-21.5167	-28.3395	-215.021	-21.54	3.08136	-184.399	-14.9482	-15.7743	
3	0.025	-147.383	-34.405	-12.975	-131.741	-36.5319	-31.9549	-107.988	-33.432	-56.4989	-90.3259	-35.6415	-69.1654	-170.451	-7.43424	-89.1478	-163.692	-0.429838	-115.687	-166.805	2.83998	-139.291	-198.22	-6.20643	-88.4517	-202.09	1.18637	-122.302	-206.899	6.02366	-151.671	-222.43	-14.29	-83.9542	-231.574	-10.0225	-111.012	-235.032	-6.5895	-135.718	-240.894	-34.2665	-64.769	-256.132	-28.7863	-87.7609	-270.111	-20.3546	-103.479	-219.258	-21.0669	-31.2218	-218.638	-20.8215	2.62557	-182.905	-13.3306	-18.4467	
4	0.0333333	-151.381	-36.4439	-9.37179	-130.405	-35.1596	-33.2415	-105.636	-32.6248	-54.3432	-87.5014	-33.656	-69.667	-167.71	-6.58447	-85.0524	-165.306	-0.486323	-110.437	-161.917	5.45866	-137.857	-196.296	-2.25371	-93.1557	-199.434	2.52621	-124.387	-204.384	7.34717	-149.922	-226.721	-15.1311	-82.4704	-230.584	-7.86917	-112.151	-237.677	-5.72601	-139.85	-246.808	-33.591	-65.0257	-254.539	-28.4704	-87.2408	-270.396	-19.0336	-103.759	-220.002	-19.0378	-30.0034	-213.132	-18.7368	1.17403	-183.444	-13.9223	-18.299	
5	0.0416667	-151.666	-34.1716	-13.0457	-132.049	-34.277	-32.1543	-108.237	-30.3444	-57.9391	-87.5407	-32.0415	-70.5118	-167.744	-5.55915	-83.399	-168.734	1.87808	-114.271	-163.483	6.80624	-137.841	-201.087	-2.5518	-91.8908	-201.149	4.12743	-121.089	-208.586	8.04416	-151.017	-227.883	-13.9382	-82.2454	-234.132	-7.5646	-111.263	-239.179	-4.93304	-136.373	-245.243	-31.3985	-64.9807	-254.815	-28.3352	-85.4336	-271.328	-20.4137	-104.041	-216.996	-18.716	-26.7034	-215.951	-19.6638	3.45572	-180.796	-12.8604	-16.8409	
6	0.05	-149.872	-32.7518	-12.9287	-129.857	-33.0006	-32.8327	-110.084	-33.2047	-55.2056	-91.0342	-32.6373	-70.9729	-172.555	-3.26787	-88.8216	-166.545	1.69683	-110.767	-167.254	7.41986	-138.972	-202.913	-1.15056	-92.4024	-201.924	4.97336	-119.139	-207.979	10.9607	-152.997	-223.566	-12.6168	-81.0799	-233.08	-6.94845	-108.981	-237.086	-1.20537	-140.627	-248.172	-31.3038	-65.0171	-260.563	-25.8218	-89.3441	-272.63	-17.8243	-105.359	-216.361	-19.943	-27.2745	-217.868	-19.4506	4.85336	-184.719	-11.2714	-15.4117	
7	0.0583333	-149.773	-33.4678	-8.93769	-130.374	-34.4535	-30.679	-105.947	-29.7958	-57.858	-87.5687	-32.2555	-69.7849	-171.673	-2.30724	-87.8736	-166.187	3.85477	-115.952	-168.703	8.59892	-139.693	-201.17	-0.474625	-92.7337	-203.297	5.48734	-120.542	-205.143	11.8952	-156.234	-223.875	-11.0939	-82.7147	-235.827	-6.75594	-109.618	-239.357	-2.74614	-137.394	-248.966	-28.6026	-67.2313	-258.103	-25.8999	-87.0835	-273.62	-15.6395	-108.143	-221.671	-19.5165	-27.165	-217.672	-18.7078	2.50512	-181.764	-9.53686	-16.9734	
8	0.0666667	-149.734	-33.9041	-12.1626	-130.657	-34.3049	-33.7965	-109.624	-32.2077	-57.5531	-88.2216	-31.6169	-74.452	-170.995	-3.27444	-85.9559	-166.903	4.30711	-116.648	-162.67	9.53736	-144.055	-199.774	-0.971244	-89.5629	-205.497	6.4395	-123.903	-206.945	11.2228	-153.532	-225.731	-10.4122	-84.0579	-234.6	-6.17112	-109.322	-236.099	-1.53829	-140.6	-246.986	-30.3709	-63.5855	-257.129	-25.9492	-86.2365	-272.824	-15.9275	-105.613	-218.643	-19.0499	-29.248	-217.343	-19.8769	5.26375	-182.734	-12.3062	-16.4392	
9	0.075	-151.04	-34.3337	-10.2426	-126.12	-33.5783	-31.7474	-104.194	-31.3997	-53.5097	-89.9893	-34.4053	-71.9347	-168.761	-3.10858	-86.9464	-168.19	2.95338	-111.89	-165.06	9.51949	-140.823	-197.587	0.3081	-91.5234	-200.158	6.98781	-121.522	-204.931	10.9074	-151.954	-222.003	-9.08252	-85.2106	-234.352	-6.02876	-107.263	-236.596	-2.55343	-138.51	-241.554	-29.8722	-64.5376	-258.496	-25.2543	-87.9851	-269.719	-16.6454	-106.21	-220.617	-18.7922	-28.1257	-216.848	-18.0085	1.55487	-181.072	-11.595	-15.4764	
10	0.0833333	-148.494	-32.6748	-11.7678	-128.043	-33.9718	-31.2937	-104.889	-31.6793	-55.6052	-85.8149	-32.3267	-71.9155	-170.275	-3.49821	-87.9959	-164.343	2.85636	-112.57	-164.316	9.53738	-142.788	-198.138	0.541166	-92.7767	-199.915	5.90116	-120.417	-207.49	10.5795	-151.358	-226.991	-11.7441	-82.3774	-232.988	-5.87127	-107.522	-235.479	-1.07473	-139.524	-241.006	-29.8157	-64.6061	-256.697	-24.0801	-87.2399	-268.359	-16.4654	-105.901	-219.732	-18.9875	-27.6496	-215.56	-18.9473	0.520076	-182.74	-10.7885	-16.1541	
